# xmcd
#
# Track frame offsets: 
#        150
#        14453
#        26790
#        38388
#        51638
#        63593
#        76820
#        88143
#        101818
#        109815
#        120863
#        135235
#        143630
#        152795
#        164338
#        171518
#        187315
#        198015
#        206873
#        216303
#        225290
#        242605
#        256588
#        269288
#
# Disc length: 3760 seconds
#
# Revision: 3
# Processed by: cddbd v1.5.2PL0 Copyright (c) Steve Scherf et al.
# Submitted via: ExactAudioCopy v0.99pb5
#
DISCID=4d0eae18
DTITLE=The Balfa Brothers - Play Traditional Cajun Music Volumes 1 and 2
DYEAR=1990
DGENRE=Country
TTITLE0=Drunkard's Sorrow Waltz (La Valse De Bambocheurs)
TTITLE1=Lacassine Special
TTITLE2=My True Love
TTITLE3=La Valse De Grand Bois
TTITLE4=Family Waltz
TTITLE5=Newport Waltz
TTITLE6=Indian On A Stomp (Sauvage Sur Le Chicot)
TTITLE7=T'ai Petite Et T'ai Meon
TTITLE8=Two Step A Hadley
TTITLE9=Valse De Balfa
TTITLE10=Parlez Nous A Boire
TTITLE11=Les Blues De Cajun
TTITLE12='Tit Galop Pour Mamou
TTITLE13=Je Suis Orphelin
TTITLE14=T'en As Eu Mais T'en N'auraus Plus
TTITLE15=Two Step De L'anse A Paille
TTITLE16=La Danse De Mardi Gras
TTITLE17=Je Me Suis Marillie
TTITLE18=Enterre-Moi Pas
TTITLE19=Chère Joules Roses
TTITLE20=Chère Bassette
TTITLE21=J'ai Passé Devant Ta Porte
TTITLE22=Les Flammes D'enfer
TTITLE23=Madeleine
EXTD=\nYEAR: 1990  ID3G:   2
EXTT0=
EXTT1=
EXTT2=
EXTT3=
EXTT4=
EXTT5=
EXTT6=
EXTT7=
EXTT8=
EXTT9=
EXTT10=
EXTT11=
EXTT12=
EXTT13=
EXTT14=
EXTT15=
EXTT16=
EXTT17=
EXTT18=
EXTT19=
EXTT20=
EXTT21=
EXTT22=
EXTT23=
PLAYORDER=
